<?xml version="1.0" encoding="UTF-8" standalone="no"?>
<!-- Created with Inkscape (http://www.inkscape.org/) -->

<svg
   width="85.671646mm"
   height="10.5833mm"
   viewBox="0 0 85.671646 10.5833"
   version="1.1"
   id="svg5"
   inkscape:version="1.2 (dc2aeda, 2022-05-15)"
   sodipodi:docname="logo-orbitron-30-path.svg"
   xmlns:inkscape="http://www.inkscape.org/namespaces/inkscape"
   xmlns:sodipodi="http://sodipodi.sourceforge.net/DTD/sodipodi-0.dtd"
   xmlns="http://www.w3.org/2000/svg"
   xmlns:svg="http://www.w3.org/2000/svg">
  <sodipodi:namedview
     id="namedview7"
     pagecolor="#ffffff"
     bordercolor="#666666"
     borderopacity="1.0"
     inkscape:showpageshadow="2"
     inkscape:pageopacity="0.0"
     inkscape:pagecheckerboard="0"
     inkscape:deskcolor="#d1d1d1"
     inkscape:document-units="mm"
     showgrid="false"
     inkscape:zoom="1.055746"
     inkscape:cx="137.81724"
     inkscape:cy="166.23317"
     inkscape:window-width="1440"
     inkscape:window-height="847"
     inkscape:window-x="0"
     inkscape:window-y="25"
     inkscape:window-maximized="0"
     inkscape:current-layer="layer1" />
  <defs
     id="defs2" />
  <g
     inkscape:label="Layer 1"
     inkscape:groupmode="layer"
     id="layer1"
     transform="translate(-15.641442,-20.795773)">
    <g
       aria-label="Synodic Studio"
       id="text227"
       style="font-size:10.5833px;line-height:1.25;stroke-width:0.264583">
      <path
         d="m 16.911438,28.944914 q -0.349249,0 -0.645581,-0.169333 -0.285749,-0.169333 -0.455082,-0.455082 -0.169333,-0.296332 -0.169333,-0.645581 v -0.296332 h 0.857248 v 0.296332 q 0,0.169333 0.116416,0.296332 0.127,0.116417 0.296332,0.116417 h 5.079984 q 0.169333,0 0.285749,-0.116417 0.127,-0.126999 0.127,-0.296332 v -1.703911 q 0,-0.169333 -0.127,-0.285749 -0.116416,-0.116417 -0.285749,-0.116417 h -5.079984 q -0.349249,0 -0.645581,-0.169333 -0.285749,-0.179916 -0.455082,-0.465665 -0.169333,-0.285749 -0.169333,-0.634998 v -1.703911 q 0,-0.349249 0.169333,-0.634998 0.169333,-0.296332 0.455082,-0.465665 0.296332,-0.169333 0.645581,-0.169333 h 5.079984 q 0.349249,0 0.634998,0.169333 0.296333,0.169333 0.465665,0.465665 0.169333,0.285749 0.169333,0.634998 v 0.296332 h -0.857247 v -0.296332 q 0,-0.169333 -0.127,-0.285749 -0.116416,-0.127 -0.285749,-0.127 h -5.079984 q -0.169332,0 -0.296332,0.127 -0.116416,0.116416 -0.116416,0.285749 v 1.703911 q 0,0.169333 0.116416,0.285749 0.127,0.116417 0.296332,0.116417 h 5.079984 q 0.349249,0 0.634998,0.179916 0.296333,0.169333 0.465665,0.455082 0.169333,0.285749 0.169333,0.634998 v 1.703911 q 0,0.349249 -0.169333,0.645581 -0.169332,0.285749 -0.465665,0.455082 -0.285749,0.169333 -0.634998,0.169333 z"
         style="font-family:Orbitron;-inkscape-font-specification:Orbitron"
         id="path534" />
      <path
         d="m 25.378063,31.379073 v 0 -0.878414 h 3.831154 q 0.169333,0 0.285749,-0.127 0.127,-0.116416 0.127,-0.285749 v -1.142996 h -4.095737 q -0.349249,0 -0.645581,-0.169333 -0.285749,-0.179916 -0.465665,-0.465665 -0.169333,-0.296333 -0.169333,-0.645581 v -4.836568 h 0.86783 v 4.836568 q 0,0.169332 0.116417,0.296332 0.126999,0.116416 0.296332,0.116416 h 3.682988 q 0.169333,0 0.285749,-0.116416 0.127,-0.127 0.127,-0.296332 v -4.836568 h 0.867831 v 7.260143 q 0,0.359832 -0.169333,0.645582 -0.169333,0.296332 -0.465665,0.465665 -0.285749,0.179916 -0.645582,0.179916 z"
         style="font-family:Orbitron;-inkscape-font-specification:Orbitron"
         id="path536" />
      <path
         d="m 31.463441,28.944914 v 0 -6.138314 h 4.974151 q 0.349249,0 0.634998,0.179916 0.296332,0.169333 0.465665,0.465665 0.179916,0.285749 0.179916,0.634998 v 4.857735 h -0.86783 v -4.857735 q 0,-0.169332 -0.127,-0.285749 -0.116416,-0.126999 -0.285749,-0.126999 h -3.682988 q -0.169333,0 -0.296333,0.126999 -0.126999,0.116417 -0.126999,0.285749 v 4.857735 z"
         style="font-family:Orbitron;-inkscape-font-specification:Orbitron"
         id="path538" />
      <path
         d="m 39.919473,28.944914 q -0.349248,0 -0.645581,-0.169333 -0.285749,-0.179916 -0.465665,-0.465665 -0.169333,-0.296333 -0.169333,-0.645581 v -3.577156 q 0,-0.349249 0.169333,-0.634998 0.179916,-0.296332 0.465665,-0.465665 0.296333,-0.179916 0.645581,-0.179916 h 3.682989 q 0.359832,0 0.645581,0.179916 0.296332,0.169333 0.465665,0.465665 0.179916,0.285749 0.179916,0.634998 v 3.577156 q 0,0.349248 -0.179916,0.645581 -0.169333,0.285749 -0.465665,0.465665 -0.285749,0.169333 -0.645581,0.169333 h -3.682989 z m 0,-0.867831 h 3.682989 q 0.169332,0 0.285749,-0.116416 0.126999,-0.127 0.126999,-0.296332 v -3.577156 q 0,-0.169332 -0.126999,-0.285749 -0.116417,-0.126999 -0.285749,-0.126999 h -3.682989 q -0.169332,0 -0.296332,0.126999 -0.116416,0.116417 -0.116416,0.285749 v 3.577156 q 0,0.169332 0.116416,0.296332 0.127,0.116416 0.296332,0.116416 z"
         style="font-family:Orbitron;-inkscape-font-specification:Orbitron"
         id="path540" />
      <path
         d="m 46.957363,28.944914 q -0.359832,0 -0.656164,-0.169333 -0.285749,-0.179916 -0.465666,-0.465665 -0.169332,-0.296333 -0.169332,-0.645581 v -3.577156 q 0,-0.349249 0.169332,-0.634998 0.179917,-0.296332 0.465666,-0.465665 Q 46.597531,22.8066 46.957363,22.8066 H 51.0531 v -2.010827 h 0.867831 v 8.149141 h -4.963568 z m 0,-0.867831 h 3.682989 q 0.169332,0 0.285749,-0.116416 0.126999,-0.127 0.126999,-0.296332 v -3.577156 q 0,-0.169332 -0.126999,-0.285749 -0.116417,-0.126999 -0.285749,-0.126999 h -3.682989 q -0.169333,0 -0.296332,0.126999 -0.116416,0.116417 -0.116416,0.285749 v 3.577156 q 0,0.169332 0.116416,0.296332 0.126999,0.116416 0.296332,0.116416 z"
         style="font-family:Orbitron;-inkscape-font-specification:Orbitron"
         id="path542" />
      <path
         d="m 53.032176,28.944914 v 0 -6.138314 h 0.86783 v 6.138314 z m 0,-7.28131 v 0 -0.867831 h 0.86783 v 0.867831 z"
         style="font-family:Orbitron;-inkscape-font-specification:Orbitron"
         id="path544" />
      <path
         d="m 56.344717,28.944914 q -0.349249,0 -0.645581,-0.169333 -0.28575,-0.179916 -0.465666,-0.465665 -0.169332,-0.296333 -0.169332,-0.645581 v -3.577156 q 0,-0.349249 0.169332,-0.634998 0.179916,-0.296332 0.465666,-0.465665 0.296332,-0.179916 0.645581,-0.179916 h 4.952984 v 0.867831 h -4.952984 q -0.169333,0 -0.296333,0.126999 -0.116416,0.116417 -0.116416,0.285749 v 3.577156 q 0,0.169332 0.116416,0.296332 0.127,0.116416 0.296333,0.116416 h 4.974151 v 0.867831 h -4.974151 z"
         style="font-family:Orbitron;-inkscape-font-specification:Orbitron"
         id="path546" />
      <path
         d="m 66.568173,28.944914 q -0.349249,0 -0.645581,-0.169333 -0.28575,-0.169333 -0.455082,-0.455082 -0.169333,-0.296332 -0.169333,-0.645581 v -0.296332 h 0.857247 v 0.296332 q 0,0.169333 0.116416,0.296332 0.127,0.116417 0.296333,0.116417 h 5.079984 q 0.169332,0 0.285749,-0.116417 0.126999,-0.126999 0.126999,-0.296332 v -1.703911 q 0,-0.169333 -0.126999,-0.285749 -0.116417,-0.116417 -0.285749,-0.116417 h -5.079984 q -0.349249,0 -0.645581,-0.169333 -0.28575,-0.179916 -0.455082,-0.465665 -0.169333,-0.285749 -0.169333,-0.634998 v -1.703911 q 0,-0.349249 0.169333,-0.634998 0.169332,-0.296332 0.455082,-0.465665 0.296332,-0.169333 0.645581,-0.169333 h 5.079984 q 0.349249,0 0.634998,0.169333 0.296332,0.169333 0.465665,0.465665 0.169333,0.285749 0.169333,0.634998 v 0.296332 h -0.857248 v -0.296332 q 0,-0.169333 -0.126999,-0.285749 -0.116417,-0.127 -0.285749,-0.127 h -5.079984 q -0.169333,0 -0.296333,0.127 -0.116416,0.116416 -0.116416,0.285749 v 1.703911 q 0,0.169333 0.116416,0.285749 0.127,0.116417 0.296333,0.116417 h 5.079984 q 0.349249,0 0.634998,0.179916 0.296332,0.169333 0.465665,0.455082 0.169333,0.285749 0.169333,0.634998 v 1.703911 q 0,0.349249 -0.169333,0.645581 -0.169333,0.285749 -0.465665,0.455082 -0.285749,0.169333 -0.634998,0.169333 z"
         style="font-family:Orbitron;-inkscape-font-specification:Orbitron"
         id="path548" />
      <path
         d="m 75.299382,28.944914 q -0.359832,0 -0.656165,-0.169333 -0.285749,-0.179916 -0.455082,-0.465665 -0.169332,-0.296333 -0.169332,-0.645581 v -6.868562 h 0.86783 V 22.8066 h 2.656408 v 0.867831 h -2.656408 v 3.989904 q 0,0.169332 0.116416,0.296332 0.127,0.116416 0.296333,0.116416 h 2.243659 v 0.867831 h -2.243659 z"
         style="font-family:Orbitron;-inkscape-font-specification:Orbitron"
         id="path550" />
      <path
         d="m 79.638531,28.944914 q -0.349249,0 -0.645581,-0.169333 -0.285749,-0.179916 -0.465665,-0.465665 -0.169333,-0.296333 -0.169333,-0.645581 V 22.8066 h 0.867831 v 4.857735 q 0,0.169332 0.116416,0.296332 0.126999,0.116416 0.296332,0.116416 h 3.682989 q 0.169332,0 0.296332,-0.116416 0.127,-0.127 0.127,-0.296332 V 22.8066 h 0.86783 v 4.857735 q 0,0.349248 -0.179916,0.645581 -0.169333,0.285749 -0.465665,0.465665 -0.285749,0.169333 -0.645581,0.169333 h -3.682989 z"
         style="font-family:Orbitron;-inkscape-font-specification:Orbitron"
         id="path552" />
      <path
         d="m 86.79282,28.944914 q -0.359832,0 -0.656164,-0.169333 -0.28575,-0.179916 -0.465666,-0.465665 -0.169332,-0.296333 -0.169332,-0.645581 v -3.577156 q 0,-0.349249 0.169332,-0.634998 0.179916,-0.296332 0.465666,-0.465665 Q 86.432988,22.8066 86.79282,22.8066 h 4.095737 v -2.010827 h 0.867831 v 8.149141 H 86.79282 Z m 0,-0.867831 h 3.682988 q 0.169333,0 0.285749,-0.116416 0.127,-0.127 0.127,-0.296332 v -3.577156 q 0,-0.169332 -0.127,-0.285749 -0.116416,-0.126999 -0.285749,-0.126999 H 86.79282 q -0.169333,0 -0.296332,0.126999 -0.116417,0.116417 -0.116417,0.285749 v 3.577156 q 0,0.169332 0.116417,0.296332 0.126999,0.116416 0.296332,0.116416 z"
         style="font-family:Orbitron;-inkscape-font-specification:Orbitron"
         id="path554" />
      <path
         d="m 92.867632,28.944914 v 0 -6.138314 h 0.867831 v 6.138314 z m 0,-7.28131 v 0 -0.867831 h 0.867831 v 0.867831 z"
         style="font-family:Orbitron;-inkscape-font-specification:Orbitron"
         id="path556" />
      <path
         d="m 96.338938,28.944914 q -0.349249,0 -0.645582,-0.169333 -0.285749,-0.179916 -0.465665,-0.465665 -0.169333,-0.296333 -0.169333,-0.645581 v -3.577156 q 0,-0.349249 0.169333,-0.634998 0.179916,-0.296332 0.465665,-0.465665 0.296333,-0.179916 0.645582,-0.179916 h 3.682992 q 0.35983,0 0.64558,0.179916 0.29633,0.169333 0.46566,0.465665 0.17992,0.285749 0.17992,0.634998 v 3.577156 q 0,0.349248 -0.17992,0.645581 -0.16933,0.285749 -0.46566,0.465665 -0.28575,0.169333 -0.64558,0.169333 h -3.682992 z m 0,-0.867831 h 3.682992 q 0.16933,0 0.28574,-0.116416 0.127,-0.127 0.127,-0.296332 v -3.577156 q 0,-0.169332 -0.127,-0.285749 -0.11641,-0.126999 -0.28574,-0.126999 h -3.682992 q -0.169333,0 -0.296333,0.126999 -0.116416,0.116417 -0.116416,0.285749 v 3.577156 q 0,0.169332 0.116416,0.296332 0.127,0.116416 0.296333,0.116416 z"
         style="font-family:Orbitron;-inkscape-font-specification:Orbitron"
         id="path558" />
    </g>
  </g>
</svg>
